<?xml version="1.0" standalone="no"?>
<!DOCTYPE svg PUBLIC "-//W3C//DTD SVG 20010904//EN"
 "http://www.w3.org/TR/2001/REC-SVG-20010904/DTD/svg10.dtd">
<svg version="1.0" xmlns="http://www.w3.org/2000/svg"
 width="260.000000pt" height="260.000000pt" viewBox="0 0 260.000000 260.000000"
 preserveAspectRatio="xMidYMid meet">
<metadata>
Created by potrace 1.14, written by Peter Selinger 2001-2017
</metadata>
<g transform="translate(0.000000,260.000000) scale(0.100000,-0.100000)"
fill="#000000" stroke="none">
<path d="M0 1300 l0 -1300 1300 0 1300 0 0 1300 0 1300 -1300 0 -1300 0 0
-1300z m1375 780 c113 -29 232 -90 301 -156 33 -31 51 -53 41 -50 -109 34
-257 31 -412 -9 -132 -33 -201 -60 -442 -171 -249 -115 -292 -128 -408 -128
-87 0 -193 25 -235 55 -12 9 -11 9 5 3 11 -4 65 -9 120 -12 l101 -4 37 73
c168 327 534 491 892 399z m349 -340 c34 -11 89 -38 122 -59 61 -41 123 -91
113 -91 -3 0 -43 14 -90 31 -69 26 -103 33 -193 37 -148 6 -211 -6 -486 -99
-129 -44 -280 -91 -335 -105 -119 -30 -285 -41 -370 -25 -65 12 -182 66 -230
106 l-30 25 35 -11 c128 -39 149 -43 265 -42 147 1 194 13 508 126 317 115
421 140 555 131 40 -3 101 -14 136 -24z m-274 -440 c0 -76 -5 -162 -11 -191
-24 -109 -137 -175 -255 -149 -97 22 -134 62 -158 173 -6 26 -5 27 37 27 42 0
44 -1 56 -39 16 -54 52 -81 108 -81 55 0 95 20 113 57 8 17 15 74 18 146 l4
117 -76 0 -76 0 0 40 0 40 120 0 120 0 0 -140z m426 121 c82 -37 116 -148 72
-230 -36 -68 -88 -91 -200 -91 l-88 0 0 -70 0 -70 -45 0 -45 0 0 240 0 240
133 0 c107 0 140 -4 173 -19z m244 -83 l1 -103 31 35 c17 19 59 66 93 103 l61
68 54 -3 54 -3 -99 -108 c-55 -59 -102 -112 -103 -118 -2 -5 47 -62 109 -127
l113 -117 -55 -3 -54 -4 -102 107 -103 108 0 -107 0 -106 -45 0 -45 0 0 240 0
240 45 0 45 0 0 -102z m-1661 76 l31 -6 0 -88 c0 -290 184 -548 462 -647 107
-38 292 -44 403 -14 91 25 196 78 253 127 28 24 50 34 74 34 18 0 48 4 66 9
17 5 32 6 32 1 0 -4 -34 -40 -75 -78 -87 -81 -233 -159 -350 -187 -100 -24
-267 -22 -370 5 -156 40 -308 137 -413 262 -57 69 -136 234 -156 325 -9 40
-16 115 -16 167 0 104 -1 102 59 90z m121 -283 c42 -109 153 -250 246 -312 55
-38 140 -77 214 -100 90 -28 260 -31 350 -6 82 23 73 12 -11 -15 -96 -29 -273
-32 -363 -4 -191 57 -343 186 -425 359 -29 63 -62 187 -60 229 1 13 7 -4 14
-37 8 -33 23 -84 35 -114z"/>
<path d="M1055 2005 c-135 -25 -252 -85 -356 -182 -46 -43 -129 -155 -129
-174 0 -12 128 45 338 150 223 112 332 150 450 158 l87 6 -35 15 c-47 19 -174
41 -235 41 -27 -1 -81 -7 -120 -14z"/>
<path d="M1660 1265 l0 -85 81 0 c76 0 82 2 110 29 35 35 38 77 8 115 -19 25
-25 26 -110 26 l-89 0 0 -85z"/>
</g>
</svg>
